<?xml version="1.0" encoding="UTF-8"?>
<!-- Generator: Adobe Illustrator 19.1.0, SVG Export Plug-In . SVG Version: 6.00 Build 0)  -->
<svg xmlns="http://www.w3.org/2000/svg" xmlns:xlink="http://www.w3.org/1999/xlink" xmlns:dc="http://purl.org/dc/elements/1.1/" xmlns:cc="http://creativecommons.org/ns#" xmlns:rdf="http://www.w3.org/1999/02/22-rdf-syntax-ns#" version="1.1" id="DESIGNS" x="0px" y="0px" width="32px" height="32px" viewBox="0 0 32 32" style="enable-background:new 0 0 32 32;" xml:space="preserve">
<title property="dc:title">to erase</title><desc property="dc:description">An icon for "erase" from the Isometric series on to [icon]. Downloaded from http://www.toicon.com/icons/isometric_erase by 127.0.0.1 on 2017-07-10. Licensed CC-BY, see http://toicon.com/license/ for details.</desc>
<g>
	<path class="isometric_vijf" d="M24.89,5.886C24.89,5.886,24.579,5.843,24.89,5.886c-1.224-0.169-4.256-0.385-4.256-0.385   s-0.539-0.126-0.884,0.104l-7.277,4.827H18L24.89,5.886z" style="fill: #F29227;"/>
	<path class="isometric_elf" d="M12.473,10.432L7.25,13.939C6.56,14.399,6,15.514,6,16.429v8.281c0,0.457,0.14,0.778,0.366,0.927   c0.216,0.142,5.093,0.455,5.353,0.439C11.295,26.094,11,25.724,11,25.061V16.78c0-0.915,0.56-2.029,1.25-2.49L18,10.432H12.473z" style="fill: #72C0AB;"/>
	<path class="isometric_tien" d="M12.25,14.29c-0.69,0.46-1.25,1.575-1.25,2.49v8.281c0,0.915,0.56,1.283,1.25,0.823L18,21.932   v-11.5L12.25,14.29z" style="fill: #7BD6C4;"/>
	<path class="isometric_drie" d="M24.89,5.886c0,0-6.669,4.4-6.89,4.546v11.5l6.75-4.382c0.69-0.46,1.25-1.575,1.25-2.49V6.82   C26,5.918,25.621,5.963,24.89,5.886z" style="fill: #F2D76C;"/>
</g>
<metadata><work rdf:about=""><format>image/svg+xml</format><type rdf:resource="http://purl.org/dc/dcmitype/StillImage"/><license rdf:resource="http://creativecommons.org/licenses/by/4.0/"/><attributionname>Jo Szczepanska</attributionname><attributionurl>http://www.toicon.com/icons/isometric_erase</attributionurl></work></metadata></svg>
